<svg width="1792" height="1456" viewBox="0 0 1792 1456" fill="none" xmlns="http://www.w3.org/2000/svg">
<path d="M185.546 560.058L730.636 1141.9L468.153 560.058H185.546ZM896 1235.51L1201.36 560.058H590.645L896 1235.51ZM470.778 448.066L649.266 112.087H420.031L168.047 448.066H470.777H470.778ZM1061.36 1141.9L1606.45 560.058H1323.85L1061.36 1141.9ZM597.644 448.066H1194.36L1015.87 112.087H776.133L597.644 448.066ZM1321.22 448.066H1623.95L1371.97 112.087H1142.74L1321.22 448.066ZM1444.59 22.843L1780.57 470.814C1788.73 481.314 1792.53 493.417 1791.94 507.124C1791.36 520.831 1786.4 532.643 1777.07 542.559L937.122 1438.5C926.623 1450.17 912.915 1456 896 1456C879.085 1456 865.377 1450.17 854.878 1438.5L14.932 542.56C5.59933 532.643 0.641333 520.831 0.0579996 507.124C-0.525334 493.417 3.26633 481.314 11.433 470.814L347.411 22.844C357.91 7.67733 372.784 0.0939941 392.033 0.0939941H1399.97C1419.22 0.0939941 1434.09 7.67634 1444.59 22.843Z" fill="#DAA521"/>
</svg>
