<svg width="1792" height="1456" viewBox="0 0 1792 1456" fill="none" xmlns="http://www.w3.org/2000/svg">
<path d="M185.546 559.964L730.636 1141.8L468.153 559.964H185.546ZM896 1235.42L1201.36 559.964H590.645L896 1235.42ZM470.778 447.972L649.266 111.993H420.031L168.047 447.972H470.777H470.778ZM1061.36 1141.8L1606.45 559.964H1323.85L1061.36 1141.8ZM597.644 447.972H1194.36L1015.87 111.993H776.133L597.644 447.972ZM1321.22 447.972H1623.95L1371.97 111.993H1142.74L1321.22 447.972ZM1444.59 22.749L1780.57 470.72C1788.73 481.22 1792.53 493.323 1791.94 507.03C1791.36 520.737 1786.4 532.549 1777.07 542.465L937.122 1438.41C926.623 1450.07 912.916 1455.91 896 1455.91C879.085 1455.91 865.378 1450.07 854.878 1438.41L14.9323 542.466C5.59967 532.549 0.641667 520.737 0.0583333 507.03C-0.525 493.323 3.26667 481.22 11.4333 470.72L347.411 22.75C357.911 7.58333 372.785 0 392.033 0H1399.97C1419.22 0 1434.09 7.58234 1444.59 22.749Z" fill="black"/>
</svg>
