<svg width="20" height="20" viewBox="0 0 20 20" fill="none" xmlns="http://www.w3.org/2000/svg">
<path d="M19 0H7.00001C6.73479 0 6.48044 0.105357 6.2929 0.292893C6.10537 0.48043 6.00001 0.734784 6.00001 1V8.46L0.450012 12.16C0.311038 12.2515 0.197098 12.3763 0.11852 12.523C0.0399416 12.6696 -0.000791676 12.8336 1.16559e-05 13V19C1.16559e-05 19.2652 0.105368 19.5196 0.292905 19.7071C0.480441 19.8946 0.734795 20 1.00001 20H19C19.2652 20 19.5196 19.8946 19.7071 19.7071C19.8947 19.5196 20 19.2652 20 19V1C20 0.734784 19.8947 0.48043 19.7071 0.292893C19.5196 0.105357 19.2652 0 19 0ZM2.00001 13.54L6.00001 10.87V18H2.00001V13.54ZM12 18V16H14V18H12ZM18 18H16V15C16 14.7348 15.8947 14.4804 15.7071 14.2929C15.5196 14.1054 15.2652 14 15 14H11C10.7348 14 10.4804 14.1054 10.2929 14.2929C10.1054 14.4804 10 14.7348 10 15V18H8.00001V2H18V18Z" fill="#DAA521"/>
<path d="M10 6H16C16.2652 6 16.5196 5.89464 16.7071 5.70711C16.8946 5.51957 17 5.26522 17 5C17 4.73478 16.8946 4.48043 16.7071 4.29289C16.5196 4.10536 16.2652 4 16 4H10C9.73478 4 9.48043 4.10536 9.29289 4.29289C9.10536 4.48043 9 4.73478 9 5C9 5.26522 9.10536 5.51957 9.29289 5.70711C9.48043 5.89464 9.73478 6 10 6ZM10 10H16C16.2652 10 16.5196 9.89464 16.7071 9.70711C16.8946 9.51957 17 9.26522 17 9C17 8.73478 16.8946 8.48043 16.7071 8.29289C16.5196 8.10536 16.2652 8 16 8H10C9.73478 8 9.48043 8.10536 9.29289 8.29289C9.10536 8.48043 9 8.73478 9 9C9 9.26522 9.10536 9.51957 9.29289 9.70711C9.48043 9.89464 9.73478 10 10 10Z" fill="#DAA521"/>
</svg>
