<svg width="428" height="428" viewBox="0 0 428 428" fill="none" xmlns="http://www.w3.org/2000/svg">
<path d="M327.92 74.48C322.857 74.48 317.907 75.981 313.697 78.794C309.487 81.607 306.206 85.605 304.268 90.283C302.331 94.961 301.824 100.108 302.812 105.074C303.799 110.04 306.238 114.602 309.818 118.182C313.398 121.762 317.96 124.2 322.926 125.188C327.891 126.176 333.039 125.669 337.717 123.731C342.394 121.794 346.392 118.512 349.205 114.302C352.018 110.093 353.52 105.143 353.52 100.08C353.52 93.29 350.823 86.779 346.022 81.978C341.221 77.177 334.709 74.48 327.92 74.48ZM426.053 126.106C425.638 108.406 422.323 90.894 416.24 74.266C410.815 60.04 402.373 47.1578 391.493 36.5065C380.929 25.5716 368.017 17.1823 353.733 11.9732C337.15 5.70461 319.618 2.3137 301.893 1.9465C279.28 0.666503 272.026 0.666504 214 0.666504C155.973 0.666504 148.72 0.666503 126.106 1.9465C108.382 2.3137 90.85 5.70461 74.266 11.9732C60.009 17.235 47.1078 25.6171 36.5065 36.5065C25.5716 47.0703 17.1823 59.983 11.9732 74.266C5.70461 90.85 2.3137 108.382 1.9465 126.106C0.666503 148.72 0.666504 155.973 0.666504 214C0.666504 272.026 0.666503 279.28 1.9465 301.893C2.3137 319.618 5.70461 337.15 11.9732 353.733C17.1823 368.017 25.5716 380.929 36.5065 391.493C47.1078 402.383 60.009 410.765 74.266 416.026C90.85 422.295 108.382 425.686 126.106 426.053C148.72 427.333 155.973 427.333 214 427.333C272.026 427.333 279.28 427.333 301.893 426.053C319.618 425.686 337.15 422.295 353.733 416.026C368.017 410.817 380.929 402.428 391.493 391.493C402.421 380.882 410.871 367.988 416.24 353.733C422.323 337.106 425.638 319.593 426.053 301.893C426.053 279.28 427.333 272.026 427.333 214C427.333 155.973 427.333 148.72 426.053 126.106ZM387.653 299.333C387.498 312.875 385.045 326.292 380.4 339.013C376.994 348.297 371.523 356.686 364.4 363.546C357.48 370.597 349.109 376.057 339.866 379.546C327.145 384.192 313.728 386.645 300.187 386.8C278.853 387.866 270.96 388.08 214.853 388.08C158.746 388.08 150.853 388.08 129.52 386.8C115.459 387.063 101.458 384.898 88.133 380.4C79.297 376.732 71.309 371.286 64.667 364.4C57.5857 357.546 52.1832 349.151 48.8798 339.866C43.6714 326.963 40.7826 313.241 40.3465 299.333C40.3465 278 39.0665 270.106 39.0665 214C39.0665 157.893 39.0665 150 40.3465 128.666C40.4421 114.822 42.9694 101.103 47.8132 88.133C51.5688 79.129 57.3335 71.102 64.667 64.667C71.148 57.3314 79.158 51.5059 88.133 47.5998C101.137 42.9074 114.842 40.4549 128.666 40.3465C150 40.3465 157.893 39.0665 214 39.0665C270.106 39.0665 278 39.0665 299.333 40.3465C312.875 40.5018 326.292 42.9544 339.013 47.5998C348.708 51.1977 357.409 57.0472 364.4 64.667C371.391 71.22 376.853 79.231 380.4 88.133C385.141 101.124 387.595 114.838 387.653 128.666C388.72 150 388.933 157.893 388.933 214C388.933 270.106 388.72 278 387.653 299.333ZM214 104.56C192.364 104.602 171.226 111.056 153.256 123.107C135.287 135.158 121.293 152.265 113.043 172.267C104.792 192.268 102.655 214.266 106.902 235.481C111.149 256.696 121.589 276.177 136.903 291.461C152.217 306.745 171.717 317.147 192.941 321.352C214.164 325.558 236.158 323.378 256.143 315.089C276.128 306.799 293.208 292.772 305.224 274.779C317.24 256.787 323.653 235.636 323.653 214C323.681 199.602 320.863 185.341 315.36 172.036C309.856 158.732 301.777 146.646 291.586 136.476C281.396 126.305 269.295 118.249 255.979 112.772C242.664 107.294 228.398 104.504 214 104.56ZM214 285.04C199.949 285.04 186.215 280.873 174.532 273.067C162.85 265.261 153.744 254.167 148.367 241.186C142.991 228.205 141.584 213.921 144.325 200.141C147.066 186.36 153.832 173.702 163.767 163.767C173.702 153.832 186.36 147.066 200.141 144.325C213.921 141.584 228.205 142.991 241.186 148.367C254.167 153.744 265.261 162.85 273.067 174.532C280.873 186.215 285.04 199.949 285.04 214C285.04 223.329 283.202 232.567 279.632 241.186C276.062 249.805 270.829 257.636 264.233 264.233C257.636 270.829 249.805 276.062 241.186 279.632C232.567 283.202 223.329 285.04 214 285.04Z" fill="#DAA521"/>
</svg>
