<svg width="512" height="512" viewBox="0 0 512 512" fill="none" xmlns="http://www.w3.org/2000/svg">
<g clip-path="url(#clip0_678_12)">
<path fill-rule="evenodd" clip-rule="evenodd" d="M290.632 211.648C319.384 178.588 351.904 161.82 393.02 163.844C459.912 167.132 506.992 213.7 510.376 286.4C513.348 350.432 511.24 414.688 511.696 478.832C511.808 494.224 504.6 499.976 489.828 499.604C470.04 499.104 450.18 498.648 430.44 499.8C410.856 500.944 403.408 493.084 403.744 473.632C404.516 430.084 404.04 386.504 403.956 342.94C403.928 331.068 404.076 319.14 403.148 307.324C400.288 270.752 378.828 248.68 347.012 248.928C314.312 249.18 287.856 275.46 287.28 310.424C286.436 361.896 286.944 413.388 286.836 464.872C286.76 499.344 286.732 499.344 252.696 499.568C179.096 500.04 179.124 500.04 179.096 426.424C179.068 351.18 179.616 275.916 178.52 200.688C178.204 178.904 185.488 170.18 207.208 172.216C219.768 173.396 232.532 172.348 245.212 172.4C283.044 172.568 283.044 172.588 290.632 211.648ZM7.68403 334.616C7.68403 289.488 8.51203 244.34 7.32003 199.248C6.77203 178.16 14.824 170.86 35.152 172.112C54.872 173.32 74.736 172.792 94.512 172.372C109.368 172.064 116.084 178.112 116.028 193.452C115.676 288.456 115.628 383.448 115.812 478.452C115.84 493.66 109.264 499.928 94.308 499.612C72.944 499.156 51.54 498.988 30.192 499.696C13.804 500.244 7.64803 493.24 7.82403 477.112C8.34403 429.616 8.00803 382.108 8.00803 334.612C7.90803 334.616 7.79603 334.616 7.68403 334.616ZM60.728 125.276C25.976 125.128 0.236026 101.196 2.62636e-05 68.8118C-0.239974 36.9798 26.328 12.1158 60.588 12.0918C97.868 12.0718 123.116 35.0478 122.968 68.8518C122.808 103.276 98.368 125.424 60.728 125.276Z" fill="#F47421"/>
</g>
<defs>
<clipPath id="clip0_678_12">
<rect width="512" height="512" fill="white"/>
</clipPath>
</defs>
</svg>
