<svg width="512" height="488" viewBox="0 0 512 488" fill="none" xmlns="http://www.w3.org/2000/svg">
<path fill-rule="evenodd" clip-rule="evenodd" d="M290.632 199.648C319.384 166.588 351.904 149.82 393.02 151.844C459.912 155.132 506.992 201.7 510.376 274.4C513.348 338.432 511.24 402.688 511.696 466.832C511.808 482.224 504.6 487.976 489.828 487.604C470.04 487.104 450.18 486.648 430.44 487.8C410.856 488.944 403.408 481.084 403.744 461.632C404.516 418.084 404.04 374.504 403.956 330.94C403.928 319.068 404.076 307.14 403.148 295.324C400.288 258.752 378.828 236.68 347.012 236.928C314.312 237.18 287.856 263.46 287.28 298.424C286.436 349.896 286.944 401.388 286.836 452.872C286.76 487.344 286.732 487.344 252.696 487.568C179.096 488.04 179.124 488.04 179.096 414.424C179.068 339.18 179.616 263.916 178.52 188.688C178.204 166.904 185.488 158.18 207.208 160.216C219.768 161.396 232.532 160.348 245.212 160.4C283.044 160.568 283.044 160.588 290.632 199.648ZM7.68415 322.616C7.68415 277.488 8.51215 232.34 7.32015 187.248C6.77215 166.16 14.8241 158.86 35.1521 160.112C54.8721 161.32 74.7361 160.792 94.5121 160.372C109.368 160.064 116.084 166.112 116.028 181.452C115.676 276.456 115.628 371.448 115.812 466.452C115.84 481.66 109.264 487.928 94.3081 487.612C72.9441 487.156 51.5401 486.988 30.1921 487.696C13.8041 488.244 7.64815 481.24 7.82415 465.112C8.34415 417.616 8.00815 370.108 8.00815 322.612C7.90815 322.616 7.79615 322.616 7.68415 322.616ZM60.7281 113.276C25.9761 113.128 0.236148 89.196 0.000148339 56.8118C-0.239852 24.9798 26.3281 0.11581 60.5881 0.0918099C97.8681 0.0718099 123.116 23.0478 122.968 56.8518C122.808 91.276 98.3681 113.424 60.7281 113.276Z" fill="white"/>
</svg>
