<svg width="442" height="443" viewBox="0 0 442 443" fill="none" xmlns="http://www.w3.org/2000/svg">
<path d="M220.699 0C98.8179 0 0 49.5263 0 110.612C0 171.697 220.699 442.446 220.699 442.446C220.699 442.446 441.398 171.697 441.398 110.612C441.398 49.5263 342.58 0 220.699 0ZM220.699 165.917C191.432 165.917 163.364 160.091 142.67 149.719C121.975 139.347 110.349 125.28 110.349 110.612C110.349 95.9436 121.975 81.8763 142.67 71.5045C163.364 61.1326 191.432 55.3058 220.699 55.3058C249.965 55.3058 278.033 61.1326 298.728 71.5045C319.422 81.8763 331.048 95.9436 331.048 110.612C331.048 125.28 319.422 139.347 298.728 149.719C278.033 160.091 249.965 165.917 220.699 165.917Z" fill="white"/>
</svg>
