<svg width="664" height="590" viewBox="0 0 664 590" fill="none" xmlns="http://www.w3.org/2000/svg">
<path d="M615.702 0H142.085C129.528 0.0178803 117.49 6.2365 108.611 17.2916C99.7322 28.3467 94.7377 43.3356 94.7234 58.9699V501.244C94.7234 509.064 92.2284 516.563 87.7874 522.093C83.3464 527.622 77.3231 530.729 71.0425 530.729C64.762 530.729 58.7386 527.622 54.2976 522.093C49.8566 516.563 47.3617 509.064 47.3617 501.244V147.425C47.3617 139.605 44.8667 132.105 40.4257 126.576C35.9847 121.046 29.9614 117.94 23.6808 117.94C17.4003 117.94 11.377 121.046 6.93596 126.576C2.49494 132.105 0 139.605 0 147.425V501.636C0.104416 525.02 7.63275 547.402 20.9422 563.901C34.2517 580.399 52.2618 589.673 71.0425 589.699H592.021C610.856 589.672 628.913 580.344 642.232 563.761C655.55 547.178 663.042 524.695 663.063 501.244V58.9699C663.049 43.3356 658.055 28.3467 649.176 17.2916C640.297 6.2365 628.258 0.0178803 615.702 0ZM497.298 383.304H260.489C254.209 383.304 248.185 380.198 243.744 374.668C239.303 369.139 236.808 361.639 236.808 353.819C236.808 345.999 239.303 338.5 243.744 332.97C248.185 327.441 254.209 324.334 260.489 324.334H497.298C503.578 324.334 509.601 327.441 514.042 332.97C518.484 338.5 520.978 345.999 520.978 353.819C520.978 361.639 518.484 369.139 514.042 374.668C509.601 380.198 503.578 383.304 497.298 383.304ZM497.298 265.364H260.489C254.209 265.364 248.185 262.258 243.744 256.728C239.303 251.199 236.808 243.699 236.808 235.879C236.808 228.06 239.303 220.56 243.744 215.03C248.185 209.501 254.209 206.394 260.489 206.394H497.298C503.578 206.394 509.601 209.501 514.042 215.03C518.484 220.56 520.978 228.06 520.978 235.879C520.978 243.699 518.484 251.199 514.042 256.728C509.601 262.258 503.578 265.364 497.298 265.364Z" fill="black"/>
</svg>
