<svg width="19" height="16" viewBox="0 0 19 16" fill="none" xmlns="http://www.w3.org/2000/svg">
<path d="M13.44 5.51003C13.44 5.37742 13.3873 5.25024 13.2936 5.15648C13.1998 5.06271 13.0726 5.01003 12.94 5.01003H0.500022C0.367414 5.01003 0.240237 5.06271 0.146469 5.15648C0.0527005 5.25024 2.19319e-05 5.37742 2.19319e-05 5.51003V12.71C-0.00129499 13.0103 0.056707 13.3078 0.170698 13.5856C0.284689 13.8634 0.452424 14.1159 0.664273 14.3287C0.876121 14.5415 1.12791 14.7103 1.40519 14.8255C1.68246 14.9407 1.97976 15 2.28002 15H14.37C13.7766 14.3891 13.4432 13.5718 13.44 12.72V5.51003ZM1.28002 7.51003C1.28002 7.37742 1.3327 7.25024 1.42647 7.15648C1.52024 7.06271 1.64741 7.01003 1.78002 7.01003H6.50002C6.63263 7.01003 6.75981 7.06271 6.85358 7.15648C6.94734 7.25024 7.00002 7.37742 7.00002 7.51003V11.51C7.00002 11.6426 6.94734 11.7698 6.85358 11.8636C6.75981 11.9574 6.63263 12.01 6.50002 12.01H1.78002C1.64741 12.01 1.52024 11.9574 1.42647 11.8636C1.3327 11.7698 1.28002 11.6426 1.28002 11.51V7.51003ZM11.5 14H1.78002C1.64741 14 1.52024 13.9474 1.42647 13.8536C1.3327 13.7598 1.28002 13.6326 1.28002 13.5C1.28002 13.3674 1.3327 13.2402 1.42647 13.1465C1.52024 13.0527 1.64741 13 1.78002 13H11.5C11.6326 13 11.7598 13.0527 11.8536 13.1465C11.9473 13.2402 12 13.3674 12 13.5C12 13.6326 11.9473 13.7598 11.8536 13.8536C11.7598 13.9474 11.6326 14 11.5 14ZM11.5 12H8.50002C8.36741 12 8.24024 11.9474 8.14647 11.8536C8.0527 11.7598 8.00002 11.6326 8.00002 11.5C8.00002 11.3674 8.0527 11.2402 8.14647 11.1465C8.24024 11.0527 8.36741 11 8.50002 11H11.5C11.6326 11 11.7598 11.0527 11.8536 11.1465C11.9473 11.2402 12 11.3674 12 11.5C12 11.6326 11.9473 11.7598 11.8536 11.8536C11.7598 11.9474 11.6326 12 11.5 12ZM11.5 10H8.50002C8.36741 10 8.24024 9.94735 8.14647 9.85358C8.0527 9.75981 8.00002 9.63264 8.00002 9.50003C8.00002 9.36742 8.0527 9.24024 8.14647 9.14647C8.24024 9.05271 8.36741 9.00003 8.50002 9.00003H11.5C11.6326 9.00003 11.7598 9.05271 11.8536 9.14647C11.9473 9.24024 12 9.36742 12 9.50003C12 9.63264 11.9473 9.75981 11.8536 9.85358C11.7598 9.94735 11.6326 10 11.5 10ZM11.5 8.00003H8.50002C8.36741 8.00003 8.24024 7.94735 8.14647 7.85358C8.0527 7.75981 8.00002 7.63264 8.00002 7.50003C8.00002 7.36742 8.0527 7.24024 8.14647 7.14648C8.24024 7.05271 8.36741 7.00003 8.50002 7.00003H11.5C11.6326 7.00003 11.7598 7.05271 11.8536 7.14648C11.9473 7.24024 12 7.36742 12 7.50003C12 7.63264 11.9473 7.75981 11.8536 7.85358C11.7598 7.94735 11.6326 8.00003 11.5 8.00003ZM6.00002 11H2.28002V8.00003H6.00002V11ZM19 0.530029L18.92 12.71C18.9407 13.0215 18.8972 13.3338 18.7922 13.6278C18.6872 13.9217 18.523 14.191 18.3097 14.4189C18.0964 14.6468 17.8386 14.8284 17.5523 14.9527C17.2659 15.0769 16.9571 15.1409 16.645 15.1409C16.3329 15.1409 16.0241 15.0769 15.7377 14.9527C15.4514 14.8284 15.1936 14.6468 14.9803 14.4189C14.767 14.191 14.6028 13.9217 14.4978 13.6278C14.3929 13.3338 14.3494 13.0215 14.37 12.71L14.44 4.48003C14.44 4.34742 14.3873 4.22024 14.2936 4.12648C14.1998 4.03271 14.0726 3.98003 13.94 3.98003H5.56002V0.530029C5.56002 0.397421 5.6127 0.270244 5.70647 0.176476C5.80024 0.0827073 5.92741 0.0300293 6.06002 0.0300293H18.5C18.6326 0.0300293 18.7598 0.0827073 18.8536 0.176476C18.9473 0.270244 19 0.397421 19 0.530029Z" fill="#DAA521"/>
</svg>
