<svg width="442" height="443" viewBox="0 0 442 443" fill="none" xmlns="http://www.w3.org/2000/svg">
<path d="M333.936 278.469L297.019 299.267C292.589 301.761 287.464 302.737 282.427 302.045C277.39 301.353 272.718 299.032 269.124 295.436L145.908 172.221C142.315 168.625 139.996 163.953 139.304 158.917C138.612 153.881 139.586 148.757 142.077 144.325L162.875 107.409C166.619 100.764 168.085 93.0771 167.048 85.5214C166.012 77.9658 162.531 70.957 157.137 65.5658L101.806 10.2344C98.5628 6.98983 94.7123 4.41597 90.4743 2.65991C86.2362 0.903848 81.6937 0 77.1063 0C72.5188 0 67.9763 0.903848 63.7383 2.65991C59.5002 4.41597 55.6497 6.98983 52.4067 10.2344L27.2834 35.3401C12.592 50.0312 3.23396 69.2122 0.697113 89.8332C-1.83973 110.454 2.59032 131.332 13.2828 149.145L25.8886 170.155C90.2636 277.444 181.127 366.393 289.763 428.468L292.252 429.898C329.363 451.102 375.214 444.922 404.928 415.226L431.163 388.991C434.408 385.748 436.982 381.897 438.738 377.659C440.494 373.421 441.398 368.879 441.398 364.291C441.398 359.704 440.494 355.161 438.738 350.923C436.982 346.685 434.408 342.835 431.163 339.592L375.797 284.225C370.406 278.824 363.395 275.337 355.836 274.298C348.276 273.258 340.584 274.724 333.936 278.469Z" fill="white"/>
</svg>
