<svg width="66" height="66" viewBox="0 0 66 66" fill="none" xmlns="http://www.w3.org/2000/svg">
<path d="M16 43.2C15.6 42.8 15.3 42.2 15.2 41.6C13.1 43.2 11.8 45 6.89996 45.4C6.59996 45.4 6.49996 45.4 6.49996 45.4C5.99996 45.5 5.59996 46 5.59996 46.5C5.59996 47 6.09996 47.5 6.69996 47.4H7.09996C7.19996 47.4 7.29996 47.4 7.39996 47.4C8.59996 47.4 9.29996 47.7 9.39996 48C9.49996 48.1 9.79996 49.3 6.29996 52.8C2.29996 56.5 1.99996 62.5 1.99996 62.7C1.99996 63 2.09996 63.2 2.29996 63.4C2.49996 63.6 2.79996 63.7 2.99996 63.7C12.9 63.3 15 56.6 17.9 56.6C18.9 56.6 18.6 59.1 18.6 59.3C18.5 60.6 20.5 60.8 20.6 59.5C20.6 59.5 20.6 59.3 20.6 59.1C20.9 55.5 22.2 53.8 23.5 52C23.8 51.6 24.1 51.2 24.3 50.8C23.7 50.7 23.1 50.4 22.7 50L16 43.2ZM15.8 37.9C17.4 32.2 19.9 25.4 23.7 19.2C20.5 20.9 16.1 21.7 13.5 19.1C13.3 18.9 13 18.8 12.6 18.8C12.2 18.8 12 19 11.9 19.3L1.09996 40C0.899959 40.3 0.899959 40.8 1.19996 41.1C1.49996 41.4 1.89996 41.5 2.19996 41.4L15.8 37.9ZM46.7 42.3C40.5 46.1 33.8 48.6 28 50.2L24.5 63.8C24.4 64.2 24.5 64.6 24.8 64.8C25 65 25.2 65 25.4 65C25.6 65 25.7 65 25.9 64.9L46.5 54.1C46.8 54 47 53.7 47 53.4C47 53.1 46.9 52.8 46.7 52.6C44.3 50 45 45.5 46.7 42.3ZM37.8 16C35.7 18.1 35.1 20.8 36.3 22.1C37.8 23.6 40.8 22.2 42.4 20.6C43.9 19.1 45.4 16 43.9 14.5C42.4 13 39.4 14.4 37.8 16ZM63.4 2.7C62.4 1.6 61 1 59.5 1H59.4C56.3 1.1 51.7 1.5 46.8 3.1C48.2 7.2 58.8 17.8 63 19.2C64.6 14.3 65 9.7 65.1 6.6C65 5.1 64.5 3.7 63.4 2.7ZM17.4 41.8L24.3 48.7C24.5 48.9 24.7 49 25 49C25.1 49 25.2 49 25.3 49C30.5 47.7 36.8 45.6 42.8 42.4C38.1 41.6 32.5 37.7 28.7 33.8C25.7 30.7 23.8 27.6 23 24.8C20.2 30.4 18.3 36.2 17.1 40.9C17 41.1 17.1 41.5 17.4 41.8Z" fill="#DAA521"/>
<path d="M44.9 3.69995C35.8 7.09995 29.6 13.1 24.7 21.5C24.3 24.2 26.3 28.2 30.1 32.2C35.4 37.8 42 41.1 45.8 40.2C45.9 40.2 46 40.2 46.1 40.2C53.6 35.5 59 29.5 62.2 21C57.5 19.6 46.4 8.49995 44.9 3.69995ZM43.8 22C41.3 24.5 37.2 25.8 34.9 23.5C32.8 21.4 33.5 17.5 36.4 14.6C38.9 12.1 43 10.7 45.3 13.1C47.7 15.5 46.2 19.6 43.8 22Z" fill="#DAA521"/>
</svg>
