<svg width="664" height="590" viewBox="0 0 664 590" fill="none" xmlns="http://www.w3.org/2000/svg">
<path d="M485.969 321.043L456.558 290.279C437.577 270.421 440.497 254.222 441.279 228.416C441.438 223.141 437.581 218.392 431.875 216.943L397.852 208.309C390.886 206.542 383.435 210.144 381.811 216.422C376.16 238.276 355.792 259.123 331.533 259.123C307.195 259.123 286.776 238.757 281.199 217.01C279.611 210.816 272.276 207.234 265.374 208.872L230.898 217.049C225.076 218.43 221.111 223.217 221.282 228.575C222.05 252.593 224.51 271.096 206 290.552L176.422 321.644C162.773 335.991 155.284 354.175 155.284 372.968V438.358C155.284 456.503 171.823 471.212 192.225 471.212H469.915C490.828 471.212 507.78 456.135 507.78 437.538V373.806C507.78 354.473 500.049 335.771 485.969 321.043ZM331.53 413.287C296.371 413.287 267.869 387.938 267.869 356.666C267.869 325.396 296.371 300.046 331.53 300.046C366.692 300.046 395.195 325.396 395.195 356.666C395.195 387.938 366.692 413.287 331.53 413.287Z" fill="#DAA521"/>
<path d="M561.099 178.605C513.315 143.278 424.454 118.483 331.533 118.487C238.61 118.483 149.75 143.278 101.965 178.605C85.6089 190.696 75.2187 229.333 89.9499 254.764C100.631 273.2 113.243 281.069 135.8 274.953L173.41 261.205C188.147 257.857 191.86 249.383 188.759 234.525C181.95 201.905 192.119 191.513 225.096 184.071C255.867 177.126 298.439 176.295 331.532 176.295C364.621 176.295 407.192 177.126 437.966 184.071C470.942 191.513 481.109 201.905 474.301 234.525C471.201 249.383 474.914 257.857 489.65 261.205L527.26 274.953C549.819 281.069 562.432 273.2 573.111 254.764C587.845 229.334 577.453 190.696 561.099 178.605Z" fill="#DAA521"/>
</svg>
