<svg width="428" height="348" viewBox="0 0 428 348" fill="none" xmlns="http://www.w3.org/2000/svg">
<path d="M427.333 41.733C411.298 48.69 394.34 53.289 376.986 55.387C395.294 44.45 409.014 27.243 415.6 6.96012C398.396 17.2014 379.563 24.417 359.92 28.293C346.79 14.0549 329.306 4.57712 310.209 1.34622C291.112 -1.88458 271.483 1.31442 254.401 10.4415C237.318 19.569 223.748 34.107 215.818 51.778C207.889 69.448 206.049 89.251 210.586 108.08C175.801 106.321 141.775 97.263 110.718 81.496C79.661 65.729 52.2686 43.604 30.3198 16.5601C22.6214 30.004 18.5762 45.228 18.5865 60.72C18.5592 75.107 22.0898 89.277 28.8639 101.969C35.6381 114.662 45.4456 125.482 57.4132 133.467C43.5033 133.088 29.8907 129.356 17.7332 122.587V123.653C17.8374 143.811 24.901 163.314 37.7292 178.863C50.5574 194.413 68.363 205.054 88.133 208.987C80.523 211.303 72.621 212.524 64.667 212.613C59.16 212.549 53.6675 212.05 48.2398 211.12C53.8699 228.46 64.765 243.614 79.409 254.473C94.054 265.332 111.719 271.356 129.947 271.707C99.167 295.926 61.165 309.144 21.9998 309.253C14.8689 309.277 7.7435 308.849 0.666504 307.973C40.6543 333.792 87.255 347.498 134.853 347.44C167.7 347.781 200.285 341.574 230.706 329.18C261.127 316.787 288.774 298.456 312.031 275.259C335.288 252.061 353.69 224.462 366.161 194.073C378.632 163.684 384.923 131.114 384.666 98.267C384.666 94.64 384.666 90.8 384.666 86.96C401.407 74.476 415.845 59.172 427.333 41.733Z" fill="#F47421"/>
</svg>
