<svg width="427" height="348" viewBox="0 0 427 348" fill="none" xmlns="http://www.w3.org/2000/svg">
<path d="M426.667 41.6124C410.632 48.5694 393.673 53.1684 376.319 55.2664C394.627 44.3294 408.348 27.1224 414.934 6.83952C397.73 17.0808 378.897 24.2964 359.254 28.1724C346.124 13.9343 328.64 4.45652 309.543 1.22562C290.446 -2.00518 270.816 1.19382 253.734 10.3209C236.651 19.4484 223.081 33.9864 215.151 51.6574C207.222 69.3274 205.382 89.1304 209.919 107.959C175.134 106.2 141.108 97.1424 110.051 81.3754C78.9945 65.6084 51.6021 43.4834 29.6533 16.4395C21.9549 29.8834 17.9097 45.1074 17.92 60.5994C17.8927 74.9864 21.4233 89.1564 28.1974 101.848C34.9716 114.541 44.7791 125.361 56.7467 133.346C42.8368 132.967 29.2242 129.235 17.0667 122.466V123.532C17.1709 143.69 24.2345 163.193 37.0627 178.742C49.8909 194.292 67.6965 204.933 87.4665 208.866C79.8565 211.182 71.9545 212.403 64.0005 212.492C58.4935 212.428 53.001 211.929 47.5733 210.999C53.2034 228.339 64.0985 243.493 78.7425 254.352C93.3875 265.211 111.053 271.235 129.281 271.586C98.5005 295.805 60.4985 309.023 21.3333 309.132C14.2024 309.156 7.077 308.728 0 307.852C39.9878 333.671 86.5885 347.377 134.186 347.319C167.033 347.66 199.618 341.453 230.039 329.059C260.46 316.666 288.108 298.335 311.365 275.138C334.622 251.94 353.024 224.341 365.495 193.952C377.966 163.563 384.256 130.993 383.999 98.1464C383.999 94.5194 383.999 90.6794 383.999 86.8394C400.74 74.3554 415.179 59.0514 426.667 41.6124Z" fill="white"/>
</svg>
