<svg width="758" height="944" viewBox="0 0 758 944" fill="none" xmlns="http://www.w3.org/2000/svg">
<path d="M536.992 238.073C536.992 246.873 536.392 255.673 535.292 264.373C535.792 260.873 536.292 257.273 536.692 253.773C534.292 271.173 529.692 288.073 522.992 304.273C524.292 301.073 525.692 297.873 526.992 294.673C520.292 310.473 511.692 325.273 501.192 338.873L507.492 330.773C497.092 344.173 484.992 356.273 471.592 366.673L479.692 360.373C466.092 370.773 451.292 379.473 435.492 386.173C438.692 384.873 441.892 383.473 445.092 382.173C428.892 388.873 411.992 393.473 394.592 395.873C398.092 395.373 401.692 394.873 405.192 394.473C387.692 396.773 370.092 396.773 352.592 394.473C356.092 394.973 359.692 395.473 363.192 395.873C345.792 393.473 328.892 388.873 312.692 382.173C315.892 383.473 319.092 384.873 322.292 386.173C306.492 379.473 291.692 370.873 278.092 360.373L286.192 366.673C272.792 356.273 260.692 344.173 250.292 330.773L256.592 338.873C246.192 325.273 237.492 310.473 230.792 294.673C232.092 297.873 233.492 301.073 234.792 304.273C228.092 288.073 223.492 271.173 221.092 253.773C221.592 257.273 222.092 260.873 222.492 264.373C220.192 246.873 220.192 229.273 222.492 211.773C221.992 215.273 221.492 218.873 221.092 222.373C223.492 204.973 228.092 188.073 234.792 171.873C233.492 175.073 232.092 178.273 230.792 181.473C237.492 165.673 246.092 150.873 256.592 137.273L250.292 145.373C260.692 131.973 272.792 119.873 286.192 109.473L278.092 115.773C291.692 105.373 306.492 96.6732 322.292 89.9732C319.092 91.2732 315.892 92.6732 312.692 93.9732C328.892 87.2732 345.792 82.6732 363.192 80.2732C359.692 80.7732 356.092 81.2732 352.592 81.6732C370.092 79.3732 387.692 79.3732 405.192 81.6732C401.692 81.1732 398.092 80.6732 394.592 80.2732C411.992 82.6732 428.892 87.2732 445.092 93.9732C441.892 92.6732 438.692 91.2732 435.492 89.9732C451.292 96.6732 466.092 105.273 479.692 115.773L471.592 109.473C484.992 119.873 497.092 131.973 507.492 145.373L501.192 137.273C511.592 150.873 520.292 165.673 526.992 181.473C525.692 178.273 524.292 175.073 522.992 171.873C529.692 188.073 534.292 204.973 536.692 222.373C536.192 218.873 535.692 215.273 535.292 211.773C536.392 220.473 536.892 229.273 536.992 238.073C537.092 258.973 555.292 279.073 576.992 278.073C598.592 277.073 617.092 260.473 616.992 238.073C616.792 190.173 602.392 141.173 574.192 102.173C566.592 91.6732 558.492 81.3732 549.492 72.0732C540.392 62.6732 530.392 54.5732 519.992 46.6732C501.092 32.2732 479.992 21.6732 457.592 13.4732C367.292 -19.6268 258.392 9.87323 197.292 84.2732C188.892 94.4732 180.892 105.073 174.092 116.473C167.292 127.773 161.992 139.773 157.092 151.973C147.892 174.573 143.192 198.573 141.292 222.873C137.592 270.473 149.992 320.173 174.792 360.973C198.692 400.373 234.792 434.173 276.992 453.273C289.392 458.873 302.092 464.073 315.292 467.773C328.392 471.373 341.692 473.373 355.192 474.973C379.792 477.873 404.892 475.873 429.192 470.973C521.492 452.173 598.792 372.673 613.092 279.373C615.192 265.773 616.792 252.173 616.792 238.373C616.892 217.473 598.292 197.373 576.792 198.373C555.192 199.073 536.992 215.673 536.992 238.073ZM669.692 863.373H156.592C133.892 863.373 111.192 863.573 88.4922 863.373C85.9922 863.373 83.4922 863.173 81.0922 862.873C84.5922 863.373 88.1922 863.873 91.6922 864.273C87.6922 863.673 83.8922 862.573 80.1922 861.073C83.3922 862.373 86.5922 863.773 89.7922 865.073C85.7922 863.373 82.0922 861.173 78.5922 858.473L86.6922 864.773C83.6922 862.273 80.8922 859.573 78.4922 856.573L84.7922 864.673C82.0922 861.173 79.9922 857.473 78.1922 853.473C79.4922 856.673 80.8922 859.873 82.1922 863.073C80.6922 859.373 79.6922 855.473 78.9922 851.573C79.4922 855.073 79.9922 858.673 80.3922 862.173C78.7922 850.073 79.8922 837.273 79.8922 825.073V782.273C79.8922 771.573 80.4922 760.973 81.8922 750.373C81.3922 753.873 80.8922 757.473 80.4922 760.973C83.2922 740.473 88.6922 720.373 96.7922 701.273C95.4922 704.473 94.0922 707.673 92.7922 710.873C100.592 692.673 110.592 675.573 122.692 659.873L116.392 667.973C128.492 652.473 142.392 638.473 157.992 626.373L149.892 632.673C165.592 620.573 182.692 610.573 200.892 602.773C197.692 604.073 194.492 605.473 191.292 606.773C210.392 598.773 230.392 593.273 250.992 590.473C247.492 590.973 243.892 591.473 240.392 591.873C255.192 589.973 269.892 589.873 284.792 589.873H467.792C484.292 589.873 500.692 589.773 517.192 591.873C513.692 591.373 510.092 590.873 506.592 590.473C527.092 593.273 547.192 598.673 566.292 606.773C563.092 605.473 559.892 604.073 556.692 602.773C574.892 610.573 591.992 620.573 607.692 632.673L599.592 626.373C615.092 638.473 629.092 652.373 641.192 667.973L634.892 659.873C646.992 675.573 656.992 692.673 664.792 710.873C663.492 707.673 662.092 704.473 660.792 701.273C668.792 720.373 674.292 740.373 677.092 760.973C676.592 757.473 676.092 753.873 675.692 750.373C677.592 765.473 677.692 780.473 677.692 795.673V845.173C677.692 850.873 677.892 856.573 677.192 862.173C677.692 858.673 678.192 855.073 678.592 851.573C677.992 855.573 676.892 859.373 675.392 863.073C676.692 859.873 678.092 856.673 679.392 853.473C677.692 857.473 675.492 861.173 672.792 864.673L679.092 856.573C676.592 859.573 673.892 862.373 670.892 864.773L678.992 858.473C675.492 861.173 671.792 863.273 667.792 865.073C670.992 863.773 674.192 862.373 677.392 861.073C673.692 862.573 669.792 863.573 665.892 864.273C669.392 863.773 672.992 863.273 676.492 862.873C674.292 863.173 671.992 863.273 669.692 863.373C659.392 863.473 648.792 867.773 641.392 875.073C634.492 881.973 629.192 893.373 629.692 903.373C630.692 924.773 647.292 943.673 669.692 943.373C708.592 942.773 742.792 917.373 754.192 880.073C758.692 865.273 757.692 849.373 757.692 834.173C757.692 799.373 758.792 764.873 752.792 730.373C743.992 679.873 718.592 632.373 683.792 595.073C648.992 557.773 602.192 530.373 552.692 518.173C524.292 511.173 495.692 510.073 466.692 510.073H289.292C259.592 510.073 230.092 511.473 201.192 519.173C152.092 532.173 105.892 559.873 71.7922 597.473C37.3922 635.373 12.4922 682.973 4.39218 733.773C-1.00782 767.873 0.0921739 802.073 0.0921739 836.473C0.0921739 852.273 -0.807823 868.773 4.89218 883.873C12.2922 903.273 24.0922 918.573 41.3922 930.073C54.8922 938.973 71.9922 943.273 87.9922 943.473C95.7922 943.573 103.592 943.473 111.392 943.473H669.792C690.692 943.473 710.792 925.073 709.792 903.473C708.792 881.673 692.192 863.373 669.692 863.373Z" fill="black"/>
</svg>
